<?xml version="1.0" standalone="no"?>
<!DOCTYPE svg PUBLIC "-//W3C//DTD SVG 20010904//EN"
 "http://www.w3.org/TR/2001/REC-SVG-20010904/DTD/svg10.dtd">
<svg version="1.0" xmlns="http://www.w3.org/2000/svg"
 width="580.000000pt" height="387.000000pt" viewBox="0 0 580.000000 387.000000"
 preserveAspectRatio="xMidYMid meet">
<metadata>
Created by potrace 1.16, written by Peter Selinger 2001-2019
</metadata>
<g transform="translate(0.000000,387.000000) scale(0.100000,-0.100000)"
fill="#000000" stroke="none">
<path d="M0 1935 l0 -1935 2900 0 2900 0 0 1935 0 1935 -2900 0 -2900 0 0
-1935z m2630 974 c166 -26 275 -128 309 -287 6 -29 11 -100 11 -157 0 -135 0
-135 -160 -135 -157 0 -160 2 -160 121 0 175 -24 193 -253 187 l-149 -3 -28
-32 c-40 -44 -42 -75 -38 -538 3 -435 4 -442 59 -471 37 -19 312 -20 349 -1
42 21 60 71 60 168 0 123 -3 120 162 117 l136 -3 -141 -245 c-78 -135 -192
-331 -252 -437 -61 -105 -111 -190 -113 -188 -2 1 24 66 58 144 33 78 60 143
60 146 0 3 -79 5 -175 5 -187 0 -254 9 -326 46 -91 46 -136 101 -175 214 -18
51 -19 91 -19 545 l0 490 24 73 c42 129 148 218 283 241 76 12 401 13 478 0z
m914 -115 c-14 -32 -30 -68 -34 -79 -24 -53 -60 -138 -60 -140 0 -1 17 -5 39
-9 21 -3 43 -11 49 -18 5 -7 40 -128 77 -268 106 -403 184 -700 200 -760 82
-304 135 -517 135 -541 l0 -29 -149 0 c-107 0 -151 4 -158 13 -6 6 -28 81 -49
165 l-39 152 -245 -2 -245 -3 -40 -150 c-22 -83 -44 -156 -48 -163 -6 -8 -50
-12 -153 -12 -126 0 -145 2 -151 17 -7 18 -4 30 88 381 l59 223 234 407 c424
736 509 882 513 878 2 -2 -8 -30 -23 -62z"/>
<path d="M3221 1917 c-47 -188 -87 -350 -89 -359 -4 -17 9 -18 177 -18 155 0
181 2 181 15 0 26 -172 705 -179 705 -3 0 -44 -154 -90 -343z"/>
</g>
</svg>
